<svg width="20" height="20" viewBox="0 0 20 20" fill="none" xmlns="http://www.w3.org/2000/svg">
<circle cx="10.0005" cy="10" r="10" fill="#FFB400"/>
<path d="M9.89249 13.538C9.79916 13.538 9.71982 13.5053 9.65449 13.44C9.58916 13.3747 9.55649 13.2953 9.55649 13.202V10.472H6.86849C6.77515 10.472 6.69582 10.4393 6.63049 10.374C6.56515 10.3087 6.53249 10.2293 6.53249 10.136V9.394C6.53249 9.29133 6.56515 9.212 6.63049 9.156C6.69582 9.09067 6.77515 9.058 6.86849 9.058H9.55649V6.398C9.55649 6.30467 9.58916 6.22533 9.65449 6.16C9.71982 6.09467 9.79916 6.062 9.89249 6.062H10.7045C10.8072 6.062 10.8865 6.09467 10.9425 6.16C11.0078 6.22533 11.0405 6.30467 11.0405 6.398V9.058H13.7285C13.8218 9.058 13.9012 9.09067 13.9665 9.156C14.0318 9.212 14.0645 9.29133 14.0645 9.394V10.136C14.0645 10.2293 14.0318 10.3087 13.9665 10.374C13.9012 10.4393 13.8218 10.472 13.7285 10.472H11.0405V13.202C11.0405 13.2953 11.0078 13.3747 10.9425 13.44C10.8865 13.5053 10.8072 13.538 10.7045 13.538H9.89249Z" fill="white"/>
</svg>
