<svg width="22" height="22" viewBox="0 0 22 22" fill="none" xmlns="http://www.w3.org/2000/svg">
<path d="M21.0834 2.74994C20.2056 3.36913 19.2337 3.84271 18.2051 4.15244C17.653 3.51766 16.9193 3.06774 16.1032 2.86354C15.2871 2.65934 14.428 2.7107 13.642 3.01069C12.856 3.31068 12.1812 3.84481 11.7086 4.54085C11.2361 5.23689 10.9888 6.06125 11.0001 6.90244V7.81911C9.38916 7.86088 7.79292 7.5036 6.35351 6.7791C4.9141 6.0546 3.67621 4.98536 2.75008 3.66661C2.75008 3.66661 -0.916585 11.9166 7.33342 15.5833C5.44557 16.8647 3.19664 17.5073 0.916748 17.4166C9.16675 21.9999 19.2501 17.4166 19.2501 6.87494C19.2492 6.61961 19.2247 6.3649 19.1768 6.11411C20.1123 5.19148 20.7725 4.02659 21.0834 2.74994Z" fill="#2A2A2A"/>
</svg>
